<svg xmlns="http://www.w3.org/2000/svg" xmlns:xlink="http://www.w3.org/1999/xlink" viewBox="0 0 600 600"><defs><style>.cls-1{fill:none;}.cls-2{fill:url(#Degradado_sin_nombre_4);}.cls-3{fill:#043263;}.cls-4{fill:#49a5e6;}.cls-5{opacity:0.5;isolation:isolate;fill:url(#Degradado_sin_nombre_89);}.cls-6{fill:#d4edfc;}.cls-7{fill:url(#Degradado_sin_nombre_23);}.cls-8{fill:#1d447d;}.cls-9{fill:#eaf9fa;}</style><linearGradient id="Degradado_sin_nombre_4" x1="247.97" y1="-5676.14" x2="460.49" y2="-6075.83" gradientTransform="matrix(1, 0, 0, -1, 0, -5524)" gradientUnits="userSpaceOnUse"><stop offset="0" stop-color="#192647" stop-opacity="0.5"/><stop offset="1" stop-color="#192647" stop-opacity="0"/></linearGradient><linearGradient id="Degradado_sin_nombre_89" x1="215.96" y1="-6217.76" x2="370.22" y2="-6372.02" gradientTransform="matrix(1, 0, 0, -1, 0, -6002)" gradientUnits="userSpaceOnUse"><stop offset="0" stop-color="#fff" stop-opacity="0.5"/><stop offset="1" stop-color="#ecf7f8" stop-opacity="0"/></linearGradient><linearGradient id="Degradado_sin_nombre_23" x1="377.06" y1="-5822.18" x2="176.26" y2="-5822.18" gradientTransform="matrix(1, 0, 0, -1, 0, -5524)" gradientUnits="userSpaceOnUse"><stop offset="0" stop-color="#49a5e6" stop-opacity="0.2"/><stop offset="1" stop-color="#49a5e6" stop-opacity="0"/></linearGradient></defs><title>15</title><g id="Cuadrados_Blancos" data-name="Cuadrados Blancos"><rect class="cls-1" width="600" height="600"/><rect class="cls-1" width="600" height="600"/></g><g id="Capa_18" data-name="Capa 18"><path class="cls-2" d="M469.65,199.14h0V170.2a22.29,22.29,0,0,0-22.28-22.28H261.46a22.29,22.29,0,0,0-22.28,22.28h0v64H194.45A23.46,23.46,0,0,0,171,257.7h0V405.94a23.45,23.45,0,0,0,23.45,23.46h44.73V533.57a22.3,22.3,0,0,0,22.28,22.28H447.37a22.29,22.29,0,0,0,22.28-22.28V226.27h0Z"/><path class="cls-3" d="M207.5,96.85H392.4A22.13,22.13,0,0,1,414.5,119v362a22.12,22.12,0,0,1-22.1,22.1H207.5a22.12,22.12,0,0,1-22.1-22.1v-362a22.13,22.13,0,0,1,22.06-22.2Z"/><rect class="cls-4" x="185.4" y="147.85" width="229.2" height="304.3"/><polygon class="cls-5" points="185.7 148.05 185.7 451.95 302.5 452.15 414.5 245.15 414.5 147.85 185.7 148.05"/><path class="cls-6" d="M354,183.48H144.36a23,23,0,0,0-23,23V351.85a23,23,0,0,0,23,23H334.72L371.94,412a3,3,0,0,0,5.12-2.12V206.48a23,23,0,0,0-23-23Z"/><path class="cls-7" d="M354,183.48H278.86L176.26,374.85H334.72L371.94,412a3,3,0,0,0,5.12-2.13V206.44a23,23,0,0,0-23-23Z"/><path class="cls-8" d="M306.49,256H191.93a25,25,0,0,0-25,25h0a25,25,0,0,0,25,25H306.49a25,25,0,0,0,25-25h0A25,25,0,0,0,306.49,256Z"/><polygon class="cls-9" points="212.01 282.89 204.99 282.43 209 288.17 205.43 290.31 202.35 283.95 199.34 290.31 195.77 288.17 199.71 282.43 192.69 282.89 192.69 278.9 199.75 279.4 195.77 273.62 199.34 271.48 202.35 277.82 205.38 271.48 209 273.62 204.99 279.4 212.01 278.9 212.01 282.89"/><polygon class="cls-9" points="242.98 282.89 235.96 282.43 239.97 288.17 236.39 290.31 233.32 283.95 230.31 290.31 226.73 288.17 230.68 282.43 223.66 282.89 223.66 278.9 230.72 279.4 226.73 273.62 230.31 271.48 233.32 277.82 236.35 271.48 239.97 273.62 235.96 279.4 242.98 278.9 242.98 282.89"/><polygon class="cls-9" points="273.95 282.89 266.92 282.43 270.93 288.17 267.36 290.31 264.29 283.95 261.27 290.31 257.7 288.17 261.65 282.43 254.63 282.89 254.63 278.9 261.69 279.4 257.7 273.62 261.27 271.48 264.29 277.82 267.32 271.48 270.93 273.62 266.92 279.4 273.95 278.9 273.95 282.89"/><polygon class="cls-9" points="304.91 282.89 297.89 282.43 301.9 288.17 298.33 290.31 295.25 283.95 292.24 290.31 288.67 288.17 292.61 282.43 285.59 282.89 285.59 278.9 292.65 279.4 288.67 273.62 292.24 271.48 295.25 277.82 298.29 271.48 301.9 273.62 297.89 279.4 304.91 278.9 304.91 282.89"/></g></svg>